<?xml version="1.0" encoding="UTF-8" standalone="no"?>
<svg
   id="svg8"
   version="1.1"
   viewBox="0 0 264.58334 264.58334"
   height="1000"
   width="1000"
   xmlns="http://www.w3.org/2000/svg"
   xmlns:svg="http://www.w3.org/2000/svg"
   xmlns:rdf="http://www.w3.org/1999/02/22-rdf-syntax-ns#"
   xmlns:cc="http://creativecommons.org/ns#"
   xmlns:dc="http://purl.org/dc/elements/1.1/">
  <defs
     id="defs2" />
  <metadata
     id="metadata5">
    <rdf:RDF>
      <cc:Work
         rdf:about="">
        <dc:format>image/svg+xml</dc:format>
        <dc:type
           rdf:resource="http://purl.org/dc/dcmitype/StillImage" />
      </cc:Work>
    </rdf:RDF>
  </metadata>
  <g
     id="layer1"
     transform="translate(46.105434,-89.946976)">
    <g
       id="g3097"
       transform="matrix(0.94676829,0,0,0.94676829,88.715537,46.781349)"
       style="stroke-width:1.05622">
      <g
         id="g3020"
         style="stroke-width:1.05622">
        <circle
           style="fill:#ac9d93;stroke:none;stroke-width:2.23568;stroke-linejoin:round;stop-color:#000000"
           id="circle2499"
           cx="-78.185661"
           cy="121.10708"
           r="64.215569" />
        <circle
           style="fill:#ac9d93;stroke:none;stroke-width:2.23568;stroke-linejoin:round;stop-color:#000000"
           id="circle2513"
           cx="72.842644"
           cy="121.10708"
           r="64.215569" />
      </g>
      <circle
         style="fill:#c8beb7;stroke:none;stroke-width:2.23568;stroke-linejoin:round;stop-color:#000000"
         id="path2397"
         cx="-2.6715181"
         cy="209.85042"
         r="103.90272" />
      <path
         id="circle2521"
         style="fill:#e3dedb;stroke:none;stroke-width:2.23568;stroke-linejoin:round;stop-color:#000000"
         d="m -29.129594,130.47565 a 39.687501,39.687501 0 0 0 -39.687501,39.6875 39.687501,39.687501 0 0 0 39.687501,39.6875 39.687501,39.687501 0 0 0 26.458334,-10.13271 39.687501,39.687501 0 0 0 26.457818,10.13271 39.687501,39.687501 0 0 0 39.687501,-39.6875 39.687501,39.687501 0 0 0 -39.687501,-39.6875 39.687501,39.687501 0 0 0 -26.4448984,10.12186 39.687501,39.687501 0 0 0 -26.4712536,-10.12186 z" />
      <circle
         style="fill:#ac9d93;stroke:none;stroke-width:2.23568;stroke-linejoin:round;stop-color:#000000"
         id="circle2618"
         cx="-2.6715181"
         cy="209.85042"
         r="24.528284" />
      <g
         id="g3025"
         style="stroke-width:1.05622">
        <circle
           style="fill:#241f1c;stroke:none;stroke-width:2.23568;stroke-linejoin:round;stop-color:#000000"
           id="circle2517"
           cx="-29.129471"
           cy="170.16327"
           r="15.15938" />
        <circle
           style="fill:#241f1c;stroke:none;stroke-width:2.23568;stroke-linejoin:round;stop-color:#000000"
           id="circle2551"
           cx="23.786453"
           cy="170.16327"
           r="15.15938" />
      </g>
      <path
         id="circle2519"
         style="fill:#241f1c;stroke:none;stroke-width:2.23568;stroke-linejoin:round;stop-color:#000000"
         d="m -42.359019,249.53735 a 39.687501,39.687501 0 0 0 39.6875018,39.6875 39.687501,39.687501 0 0 0 39.6875002,-39.6875 z" />
    </g>
  </g>
</svg>
